<svg xmlns="http://www.w3.org/2000/svg" width="35.321" height="35.218" viewBox="0 0 35.321 35.218">
  <g id="Group_2692" transform="translate(0 0)">
    <path id="Path_5" d="M14.986,49.27s-5.151-5.83-11.863.968a7.739,7.739,0,0,0-.46,10.227l4.662,5.363Z" transform="translate(-0.923 -38.492)" fill="#395aa8"/>
    <path id="Path_6" d="M20.71,11.419s5.891-4.75,10.669.635l5.433,6.25L42.694,5.2s-4.557-6.5-10.869-3.324a2.951,2.951,0,0,0-.611.408Z" transform="translate(-17.07 -1.008)" fill="#3cace1"/>
    <path id="Path_7" d="M116.47,60.4s5.151,5.83,11.863-.968a7.739,7.739,0,0,0,.46-10.227l-4.664-5.363Z" transform="translate(-95.212 -35.96)" fill="#395aa8"/>
    <path id="Path_8" d="M75.6,105.3s-5.891,4.75-10.669-.635L59.5,98.42l-5.882,13.1s4.557,6.5,10.869,3.324a2.951,2.951,0,0,0,.611-.408Z" transform="translate(-43.925 -80.498)" fill="#3cace1"/>
  </g>
</svg>
